<?xml version="1.0" encoding="UTF-8" standalone="no"?>
<!-- Created with Inkscape (http://www.inkscape.org/) -->

<svg
   xmlns:dc="http://purl.org/dc/elements/1.1/"
   xmlns:cc="http://creativecommons.org/ns#"
   xmlns:rdf="http://www.w3.org/1999/02/22-rdf-syntax-ns#"
   xmlns:svg="http://www.w3.org/2000/svg"
   xmlns="http://www.w3.org/2000/svg"
   xmlns:sodipodi="http://sodipodi.sourceforge.net/DTD/sodipodi-0.dtd"
   xmlns:inkscape="http://www.inkscape.org/namespaces/inkscape"
   width="46"
   height="33"
   viewBox="0 0 12.170834 8.7312711"
   version="1.1"
   id="svg8"
   inkscape:version="0.92.1 r"
   sodipodi:docname="expected_output_tab.svg"
   style="enable-background:new">
  <defs
     id="defs2" />
  <sodipodi:namedview
     id="base"
     pagecolor="#ffffff"
     bordercolor="#666666"
     borderopacity="1.0"
     inkscape:pageopacity="0"
     inkscape:pageshadow="2"
     inkscape:zoom="8.0000001"
     inkscape:cx="28.699229"
     inkscape:cy="24.430496"
     inkscape:document-units="px"
     inkscape:current-layer="layer25"
     showgrid="false"
     units="px"
     inkscape:window-width="1366"
     inkscape:window-height="711"
     inkscape:window-x="0"
     inkscape:window-y="30"
     inkscape:window-maximized="1" />
  <metadata
     id="metadata5">
    <rdf:RDF>
      <cc:Work
         rdf:about="">
        <dc:format>image/svg+xml</dc:format>
        <dc:type
           rdf:resource="http://purl.org/dc/dcmitype/StillImage" />
        <dc:title></dc:title>
      </cc:Work>
    </rdf:RDF>
  </metadata>
  <g
     inkscape:groupmode="layer"
     id="layer25"
     inkscape:label="Expected Output Tab"
     style="display:inline"
     transform="translate(0,-161.13164)">
    <g
       transform="matrix(0.08113369,0,0,0.08113369,-61.593713,94.561343)"
       style="display:inline"
       id="g4973">
      <rect
         ry="4.5200238"
         y="304.71014"
         x="606.52966"
         height="38.683296"
         width="73.031311"
         id="rect4481-5-6-7-5-0"
         style="display:inline;opacity:1;fill:#883044;fill-opacity:1;stroke:none;stroke-width:4.02376366;stroke-linejoin:miter;stroke-miterlimit:4;stroke-dasharray:none;stroke-opacity:1"
         transform="matrix(1.9890645,0,0,2.6946127,-444.2351,1.0366973)" />
      <path
         id="path7480-7"
         d="m 834.59574,853.89539 c 16.96104,0 28.7849,10.75284 33.92925,16.5505 -5.0016,6.55809 -16.82536,19.14947 -33.92925,19.14947 -15.77935,0 -28.31003,-12.6235 -33.83639,-19.30297 5.33002,-5.87979 17.19668,-16.397 33.83639,-16.397 z m 0,-7.13998 c -27.0213,0 -42.89353,23.38704 -42.89353,23.38704 0,0 17.26092,26.5929 42.89353,26.5929 27.6068,0 42.78647,-26.5929 42.78647,-26.5929 0,0 -15.31894,-23.38704 -42.78647,-23.38704 z m -0.0534,10.70999 c -7.88963,0 -14.27991,6.39385 -14.27991,14.27997 0,7.88612 6.39028,14.27999 14.27991,14.27999 7.88613,0 14.28002,-6.39387 14.28002,-14.27999 0,-7.88612 -6.39389,-14.27997 -14.28002,-14.27997 z m -0.0145,14.27641 c -2.0134,2.01347 -5.28003,2.01347 -7.29703,0 -2.0171,-2.01348 -2.0171,-5.2836 0,-7.29707 2.01351,-2.01349 5.28003,-2.01349 7.29703,0 2.0171,2.01347 2.0171,5.28002 0,7.29707 z"
         inkscape:connector-curvature="0"
         style="fill:#ffffff;fill-opacity:1" />
    </g>
  </g>
</svg>
