<?xml version="1.0" encoding="UTF-8" standalone="no"?>
<svg
   xmlns:dc="http://purl.org/dc/elements/1.1/"
   xmlns:cc="http://creativecommons.org/ns#"
   xmlns:rdf="http://www.w3.org/1999/02/22-rdf-syntax-ns#"
   xmlns:svg="http://www.w3.org/2000/svg"
   xmlns="http://www.w3.org/2000/svg"
   xmlns:sodipodi="http://sodipodi.sourceforge.net/DTD/sodipodi-0.dtd"
   xmlns:inkscape="http://www.inkscape.org/namespaces/inkscape"
   enable-background="new 0 0 200 200"
   height="14"
   id="Layer_1"
   version="1.1"
   viewBox="0 0 14 14"
   width="14"
   xml:space="preserve"
   inkscape:version="0.91 r13725"
   sodipodi:docname="1463116212_vector_65_06.svg"><metadata
     id="metadata15"><rdf:RDF><cc:Work
         rdf:about=""><dc:format>image/svg+xml</dc:format><dc:type
           rdf:resource="http://purl.org/dc/dcmitype/StillImage" /><dc:title></dc:title></cc:Work></rdf:RDF></metadata><defs
     id="defs13" /><sodipodi:namedview
     pagecolor="#ffffff"
     bordercolor="#666666"
     borderopacity="1"
     objecttolerance="10"
     gridtolerance="10"
     guidetolerance="10"
     inkscape:pageopacity="0"
     inkscape:pageshadow="2"
     inkscape:window-width="1366"
     inkscape:window-height="711"
     id="namedview11"
     showgrid="false"
     fit-margin-top="0"
     fit-margin-left="0"
     fit-margin-right="0"
     fit-margin-bottom="0"
     inkscape:zoom="26.700352"
     inkscape:cx="9.3454846"
     inkscape:cy="7.5945208"
     inkscape:window-x="0"
     inkscape:window-y="30"
     inkscape:window-maximized="1"
     inkscape:current-layer="g3" /><g
     id="g3"
     transform="translate(-40.81,-103.447)"><path
       d="m 49.645488,115.47144 c 0,0.14795 -0.120884,0.26884 -0.268722,0.26884 l -3.096076,0 c -0.147721,0 -0.268488,-0.12089 -0.268488,-0.26884 l 0,0 c 0,-0.14795 0.120884,-0.26895 0.268488,-0.26895 l 3.096193,0 c 0.147721,0 0.268605,0.12111 0.268605,0.26895 l 0,0 z m -1.816643,-9.5727 c 0.147721,0 0.268955,-0.12065 0.268955,-0.26872 l 0,-1.73053 c 0,-0.14761 -0.121234,-0.26896 -0.268955,-0.26896 l 0,0 c -0.147721,0 -0.268955,0.12135 -0.268955,0.26896 l 0,1.73053 c 0,0.14807 0.121234,0.26872 0.268955,0.26872 l 0,0 z m 2.319198,0.62192 c 0.128235,0.0739 0.293225,0.0296 0.367436,-0.0986 l 0.86509,-1.49879 c 0.07398,-0.12789 0.02964,-0.29311 -0.09871,-0.36697 l 0,0 c -0.127885,-0.074 -0.293109,-0.0296 -0.366736,0.0981 l -0.86544,1.49915 c -0.07374,0.12776 -0.02964,0.29299 0.09836,0.36708 l 0,0 z m 1.697859,1.69739 c 0.07386,0.12789 0.239084,0.17258 0.367086,0.0986 l 1.498681,-0.86544 c 0.128118,-0.0739 0.172458,-0.23908 0.0986,-0.36697 l 0,0 c -0.07398,-0.12812 -0.239201,-0.17222 -0.367086,-0.0984 l -1.498681,0.86509 c -0.128235,0.074 -0.172691,0.23908 -0.0986,0.36708 l 0,0 z m 0.621689,2.31955 c 0,0.14772 0.120767,0.26896 0.268488,0.26861 l 1.730998,0 c 0.147487,0 0.268371,-0.12089 0.268371,-0.26861 l 0,0 c 0,-0.14795 -0.120884,-0.26872 -0.268371,-0.26872 l -1.730998,0 c -0.148071,0 -0.268488,0.12088 -0.268488,0.26872 l 0,0 z m -6.957828,-4.01694 c 0.127885,-0.0741 0.172458,-0.23932 0.09813,-0.36708 l -0.865324,-1.49927 c -0.07398,-0.12788 -0.238967,-0.17222 -0.366969,-0.0981 l 0,0 c -0.128351,0.0739 -0.172458,0.23909 -0.09836,0.36697 l 0.865324,1.4988 c 0.07409,0.12835 0.239084,0.17246 0.367202,0.0987 l 0,0 z m -1.697976,1.69739 c 0.07398,-0.12811 0.02964,-0.2931 -0.09825,-0.36708 l -1.498797,-0.86544 c -0.128119,-0.0734 -0.293576,-0.0298 -0.367319,0.0986 l 0,0 c -0.07386,0.12788 -0.02929,0.29334 0.0986,0.36696 l 1.498681,0.86544 c 0.128235,0.0736 0.293225,0.0294 0.367085,-0.0985 l 0,0 z m -0.621455,2.3192 c 0,-0.14772 -0.120884,-0.2686 -0.268372,-0.26895 l -1.73088,0 c -0.147955,3.5e-4 -0.268722,0.12135 -0.268722,0.26895 l 0,0 c 0,0.14784 0.120884,0.26896 0.268722,0.26896 l 1.73088,0 c 0.147488,0 0.268372,-0.12112 0.268372,-0.26896 l 0,0 z m 6.455156,5.67233 c 0,-0.14796 -0.120884,-0.26884 -0.268722,-0.26884 l -3.096076,0 c -0.147721,0 -0.268488,0.12088 -0.268488,0.26884 l 0,0 c 0,0.14784 0.120884,0.26872 0.268488,0.26872 l 3.096193,0 c 0.147721,-1.2e-4 0.268605,-0.121 0.268605,-0.26872 l 0,0 z m -2.724206,0.46907 c 0.126251,0.38085 0.484469,0.65599 0.907563,0.65599 0.42321,0 0.781428,-0.27514 0.907679,-0.65599 l -1.815242,0 z m 0.907563,-6.15295 3.5e-4,0 0,0 c 0.180626,-0.17059 0.459732,-0.4959 0.459732,-0.78458 0,-0.26942 -0.206529,-0.48878 -0.459732,-0.48878 -0.254137,0 -0.460316,0.21948 -0.460316,0.48878 0,0.28868 0.27934,0.61399 0.459966,0.78458 z m -0.25612,0.57712 c 0.03302,-0.0207 0.06371,-0.0425 0.09358,-0.0623 0.02975,-0.02 0.05776,-0.0389 0.08378,-0.0565 0.01132,-0.008 0.04329,-0.0317 0.07923,-0.0589 0.03524,0.0272 0.06721,0.0513 0.07876,0.0589 0.02602,0.0177 0.05391,0.0365 0.08378,0.0565 0.02952,0.0198 0.06068,0.0417 0.0937,0.0623 0.06569,0.0413 0.135936,0.0854 0.206296,0.12951 l 0.0067,0.004 0.0062,0.004 0.0035,0.002 0.01295,0.007 0.02672,0.0151 c 0.01774,0.01 0.03512,0.0196 0.05262,0.0293 0.03489,0.0196 0.06954,0.039 0.102682,0.0575 0.07036,0.0351 0.135936,0.068 0.192177,0.0966 0.04539,0.021 0.08425,0.0391 0.114817,0.0534 l -0.571865,3.28592 -0.818884,0 -0.571748,-3.28592 c 0.03069,-0.0142 0.06954,-0.0323 0.114816,-0.0534 0.05613,-0.0285 0.122051,-0.0615 0.192177,-0.0966 0.03349,-0.0186 0.06768,-0.0379 0.102565,-0.0575 0.0175,-0.01 0.03524,-0.0194 0.05297,-0.0293 l 0.02637,-0.0151 0.01319,-0.007 0.0035,-0.002 0.006,-0.004 0.0071,-0.004 c 0.07024,-0.0441 0.140603,-0.0883 0.206413,-0.12951 z m 4.039927,-0.56557 c 0,1.11106 -0.479102,2.11034 -1.241511,2.80262 -0.0021,10e-4 -0.114233,0.0952 -0.168724,0.1427 -0.358451,0.31166 -0.557163,0.79205 -0.557163,1.30476 l -1.348976,0 0.701267,-3.20028 c 0.149238,0.0693 0.415393,0.17316 0.673263,0.17316 0.118667,0 0.224849,-0.0223 0.315162,-0.0659 0.161723,-0.0784 0.28494,-0.21866 0.347366,-0.39602 0.06208,-0.17654 0.05577,-0.36884 -0.01774,-0.54059 -0.108049,-0.25146 -0.345616,-0.414 -0.605703,-0.414 -0.09545,0 -0.18821,0.0215 -0.275723,0.0644 -0.327413,0.15834 -0.502088,0.62496 -0.571282,0.86054 -0.02019,-0.0112 -0.04247,-0.0236 -0.06674,-0.0371 -0.05064,-0.0301 -0.109683,-0.0652 -0.172808,-0.10245 -0.03197,-0.0209 -0.06499,-0.0427 -0.0986,-0.0645 -0.0168,-0.0112 -0.03361,-0.0223 -0.05087,-0.0333 l -0.02532,-0.0167 -0.0126,-0.009 -0.0033,-0.002 -3.5e-4,-3.5e-4 c 0.0013,5.9e-4 0.0033,0.002 0.0026,0.002 l -5.83e-4,-5.9e-4 -0.0018,-0.001 -0.0062,-0.004 c -0.06476,-0.0475 -0.129518,-0.0949 -0.19066,-0.13896 -0.0301,-0.0223 -0.05857,-0.0454 -0.08553,-0.0664 -0.02719,-0.021 -0.05297,-0.0413 -0.07666,-0.0599 -0.0023,-0.002 -0.0048,-0.004 -0.0071,-0.006 0.197428,-0.1951 0.524142,-0.5791 0.524142,-0.98714 0,-0.44632 -0.341649,-0.8092 -0.761126,-0.8092 -0.42041,0 -0.761709,0.36276 -0.761709,0.8092 0,0.40804 0.32648,0.79204 0.524142,0.98714 -0.0025,0.002 -0.0048,0.004 -0.007,0.006 -0.02392,0.0186 -0.04947,0.0389 -0.07678,0.0599 -0.02719,0.0211 -0.05554,0.0441 -0.08576,0.0664 -0.06079,0.0441 -0.125785,0.0916 -0.190544,0.13896 l -0.006,0.004 -0.0014,0.001 -8.17e-4,5.9e-4 c -3.5e-4,2.3e-4 8.17e-4,-5.9e-4 0.0016,-0.001 l -0.0025,0.002 -0.01284,0.009 -0.02555,0.0167 c -0.01692,0.011 -0.03384,0.0221 -0.05076,0.0333 -0.03349,0.0219 -0.06639,0.0438 -0.0986,0.0645 -0.06313,0.0373 -0.122051,0.0725 -0.172458,0.10245 -0.0245,0.0136 -0.04702,0.026 -0.06709,0.0371 -0.06954,-0.23558 -0.243985,-0.70208 -0.571515,-0.86054 -0.08751,-0.0429 -0.180042,-0.0644 -0.275723,-0.0644 -0.25997,0 -0.497771,0.16254 -0.605353,0.414 -0.07386,0.17175 -0.08028,0.36405 -0.01774,0.54059 0.06208,0.17748 0.185177,0.31761 0.3469,0.39602 0.09055,0.0438 0.196845,0.0659 0.315628,0.0659 0.257754,0 0.523909,-0.10396 0.672796,-0.17316 l 0.701267,3.20028 -1.349209,0 c 0,-0.51283 -0.198828,-0.9931 -0.55728,-1.30476 -0.05449,-0.0475 -0.166857,-0.14165 -0.16849,-0.1427 -0.762993,-0.69228 -1.241978,-1.69156 -1.241978,-2.80262 0,-2.08933 1.694242,-3.78404 3.784041,-3.78404 2.089798,0 3.783807,1.69471 3.783807,3.78404 z m -1.941961,1.00546 c -0.240134,0 -0.500338,-0.11073 -0.623322,-0.17071 0.05192,-0.18646 0.201395,-0.6351 0.471867,-0.76579 0.06033,-0.0296 0.124385,-0.0443 0.190427,-0.0443 0.180043,0 0.344683,0.11214 0.419127,0.28646 0.05099,0.11878 0.05554,0.25169 0.01237,0.3742 -0.04294,0.12205 -0.128351,0.21948 -0.240367,0.27398 -0.06359,0.0306 -0.140954,0.0462 -0.2301,0.0462 z m -3.06037,-0.17071 c -0.122985,0.06 -0.382838,0.17071 -0.622856,0.17071 -0.08926,0 -0.166624,-0.0156 -0.23045,-0.0463 -0.111899,-0.0545 -0.197311,-0.15181 -0.240484,-0.27397 -0.04294,-0.12252 -0.03862,-0.25531 0.01237,-0.37421 0.07491,-0.17432 0.239435,-0.28645 0.419127,-0.28645 0.06593,0 0.130335,0.0146 0.190777,0.0443 0.270589,0.1308 0.419944,0.57944 0.471518,0.7659 z"
       id="path9"
       inkscape:connector-curvature="0"
       style="fill:#ffec42;fill-opacity:1" /></g></svg>