<?xml version="1.0" encoding="UTF-8" standalone="no"?>
<svg
   xmlns:dc="http://purl.org/dc/elements/1.1/"
   xmlns:cc="http://creativecommons.org/ns#"
   xmlns:rdf="http://www.w3.org/1999/02/22-rdf-syntax-ns#"
   xmlns:svg="http://www.w3.org/2000/svg"
   xmlns="http://www.w3.org/2000/svg"
   xmlns:sodipodi="http://sodipodi.sourceforge.net/DTD/sodipodi-0.dtd"
   xmlns:inkscape="http://www.inkscape.org/namespaces/inkscape"
   enable-background="new 0 0 24 24"
   height="12.2"
   id="Layer_1"
   version="1.1"
   viewBox="0 0 13.2 11.4375"
   width="14.08"
   xml:space="preserve"
   inkscape:version="0.92.1 r"
   sodipodi:docname="lesson-blocked-padlock.svg"><metadata
     id="metadata13"><rdf:RDF><cc:Work
         rdf:about=""><dc:format>image/svg+xml</dc:format><dc:type
           rdf:resource="http://purl.org/dc/dcmitype/StillImage" /><dc:title /></cc:Work></rdf:RDF></metadata><defs
     id="defs11" /><sodipodi:namedview
     pagecolor="#ffffff"
     bordercolor="#666666"
     borderopacity="1"
     objecttolerance="10"
     gridtolerance="10"
     guidetolerance="10"
     inkscape:pageopacity="0"
     inkscape:pageshadow="2"
     inkscape:window-width="1366"
     inkscape:window-height="711"
     id="namedview9"
     showgrid="false"
     inkscape:zoom="22.627417"
     inkscape:cx="8.3821622"
     inkscape:cy="7.3353064"
     inkscape:window-x="0"
     inkscape:window-y="30"
     inkscape:window-maximized="1"
     inkscape:current-layer="layer1" /><g
     inkscape:groupmode="layer"
     id="layer1"
     inkscape:label="original padlock"
     style="display:inline"><g
       id="Page-1-3"
       transform="matrix(0.40316958,0,0,0.40316958,14.447621,-0.76669105)"
       style="fill:none;fill-rule:evenodd;stroke:none;stroke-width:1"><g
         id="icon-77-document-locked-6"
         style="fill:#929292"><path
           id="document-locked-7"
           d="M 26,10 H 21.005919 C 19.898081,10 19,9.1132936 19,8.0018986 V 2 H 9.0085302 C 7.8992496,2 7,2.8983383 7,4.0073299 V 26.99267 C 7,28.101288 7.8909254,29 8.9974219,29 H 19 v -4.498324 c 0,-0.653553 0.417214,-1.208454 1,-1.415231 v -0.58376 C 20,20.023649 22.014719,18 24.5,18 c 0.525628,0 1.030575,0.09054 1.5,0.256918 z M 20,7.9970707 C 20,8.5509732 20.450975,9 20.990778,9 H 26 L 20,2 Z M 21,22.505406 C 21,20.56768 22.567003,19 24.5,19 26.429063,19 28,20.569424 28,22.505406 V 24 c 0.553689,0 1,0.449027 1,1.002929 v 4.994142 C 29,30.562119 28.553384,31 28.002455,31 h -7.00491 C 20.446311,31 20,30.550973 20,29.997071 V 25.002929 C 20,24.437881 20.446616,24 20.997545,24 Z m 1,0.0039 C 22,21.112366 23.119288,20 24.5,20 25.890338,20 27,21.123452 27,22.5093 V 24 h -5 v -1.4907 z"
           inkscape:connector-curvature="0" /></g></g></g><g
     id="g3"
     transform="matrix(0.93644068,0,0,0.93644068,0,-11.037076)" /><g
     inkscape:groupmode="layer"
     id="layer3"
     inkscape:label="padlock"
     transform="translate(0,0.93750107)"><g
       id="Page-1"
       transform="matrix(0.89553619,0,0,0.89553619,-14.778516,-17.698241)"
       style="opacity:0.85;fill:none;fill-rule:evenodd;stroke:none;stroke-width:1"><g
         id="icon-77-document-locked"
         style="fill:#929292"><path
           id="document-locked"
           d="m 20.591941,22.516173 c 0,-2.027394 1.639515,-3.667618 3.661961,-3.667618 2.01833,0 3.661962,1.642049 3.661962,3.667618 v 1.563756 c 0.579311,0 1.046274,0.469805 1.046274,1.049339 v 5.225244 c 0,0.591196 -0.467283,1.04934 -1.043706,1.04934 h -7.32906 c -0.576742,0 -1.043706,-0.469806 -1.043706,-1.04934 v -5.225244 c 0,-0.591196 0.467283,-1.049339 1.043706,-1.049339 z m 1.046274,0.0041 c 0,-1.461583 1.171083,-2.625423 2.615687,-2.625423 1.454676,0 2.615687,1.175439 2.615687,2.625417 v 1.559682 h -5.231374 v -1.559682 z"
           inkscape:connector-curvature="0"
           sodipodi:nodetypes="csscsssssscccsscccc"
           style="stroke-width:1.04627466" /></g></g></g></svg>