<?xml version="1.0" encoding="UTF-8" standalone="no"?>
<!-- Created with Inkscape (http://www.inkscape.org/) -->

<svg
   xmlns:dc="http://purl.org/dc/elements/1.1/"
   xmlns:cc="http://creativecommons.org/ns#"
   xmlns:rdf="http://www.w3.org/1999/02/22-rdf-syntax-ns#"
   xmlns:svg="http://www.w3.org/2000/svg"
   xmlns="http://www.w3.org/2000/svg"
   xmlns:sodipodi="http://sodipodi.sourceforge.net/DTD/sodipodi-0.dtd"
   xmlns:inkscape="http://www.inkscape.org/namespaces/inkscape"
   width="75mm"
   height="45mm"
   viewBox="0 0 265.74803 159.44883"
   id="svg4397"
   version="1.1"
   inkscape:version="0.91 r13725"
   sodipodi:docname="quote (copy 1).svg">
  <defs
     id="defs4399" />
  <sodipodi:namedview
     id="base"
     pagecolor="#ffffff"
     bordercolor="#666666"
     borderopacity="1.0"
     inkscape:pageopacity="0.0"
     inkscape:pageshadow="2"
     inkscape:zoom="0.98994949"
     inkscape:cx="318.81376"
     inkscape:cy="162.78239"
     inkscape:document-units="px"
     inkscape:current-layer="layer1"
     showgrid="false"
     inkscape:window-width="1366"
     inkscape:window-height="711"
     inkscape:window-x="0"
     inkscape:window-y="30"
     inkscape:window-maximized="1" />
  <metadata
     id="metadata4402">
    <rdf:RDF>
      <cc:Work
         rdf:about="">
        <dc:format>image/svg+xml</dc:format>
        <dc:type
           rdf:resource="http://purl.org/dc/dcmitype/StillImage" />
        <dc:title></dc:title>
      </cc:Work>
    </rdf:RDF>
  </metadata>
  <g
     inkscape:label="quote"
     inkscape:groupmode="layer"
     id="layer1"
     transform="translate(0,-892.91338)">
    <g
       id="g4955"
       transform="translate(-451.30254,512)">
      <path
         style="opacity:1;fill:none;fill-opacity:1;stroke:#f45b69;stroke-width:3.67379093;stroke-linecap:butt;stroke-miterlimit:4;stroke-dasharray:none;stroke-dashoffset:0;stroke-opacity:1"
         d="m 458.36308,394.3003 179.31783,0 c 34.9469,0 63.08109,28.13417 63.08109,63.08109 l 0,35.58064"
         id="rect6047-1"
         inkscape:connector-curvature="0"
         sodipodi:nodetypes="cssc" />
      <path
         id="path6053-4-0"
         d="m 691.50933,507.2368 c 0,-3.31273 1.00449,-5.96728 3.0165,-7.96365 2.01201,-1.99805 4.51715,-2.99707 7.50635,-2.99707 3.81919,0 6.80989,1.34155 8.97667,4.02464 2.16679,2.68141 3.2517,6.25103 3.2517,10.70382 0,4.56529 -0.64336,8.44889 -1.93463,11.64577 -1.28975,3.1952 -2.83593,5.84807 -4.64462,7.96365 -1.80262,2.11222 -3.68717,3.76774 -5.64912,4.96657 -1.9589,1.19883 -3.66138,2.08032 -5.10591,2.65455 l -4.95416,-9.24811 c 2.0636,-0.91507 3.81918,-2.37079 5.2622,-4.36884 1.44604,-1.99804 2.26995,-4.13881 2.47784,-6.42061 -2.06209,0 -3.94817,-1.00239 -5.65063,-2.99875 -1.70247,-1.99805 -2.55219,-4.6526 -2.55219,-7.96197 z m -26.77678,0 c 0,-3.31273 1.00601,-5.96728 3.01802,-7.96365 2.01202,-1.99973 4.51566,-2.99707 7.50636,-2.99707 3.8207,0 6.80989,1.34155 8.97668,4.02464 2.1683,2.68141 3.25169,6.25103 3.25169,10.70382 0,4.56529 -0.64336,8.44889 -1.93463,11.64577 -1.28975,3.1952 -2.83593,5.84807 -4.6431,7.96365 -1.80263,2.11222 -3.6887,3.76774 -5.65064,4.96657 -1.9589,1.19883 -3.65986,2.08032 -5.1059,2.65455 l -4.95265,-9.24811 c 2.06361,-0.91507 3.81767,-2.37079 5.26067,-4.36884 1.44605,-1.99804 2.27149,-4.13881 2.47785,-6.42061 -2.06209,0 -3.94816,-1.00239 -5.64912,-2.99875 -1.70399,-1.99805 -2.55523,-4.6526 -2.55523,-7.96197 z"
         inkscape:connector-curvature="0"
         style="fill:#666666" />
    </g>
  </g>
</svg>
