<?xml version="1.0" encoding="UTF-8" standalone="no"?>
<svg
   xmlns:dc="http://purl.org/dc/elements/1.1/"
   xmlns:cc="http://creativecommons.org/ns#"
   xmlns:rdf="http://www.w3.org/1999/02/22-rdf-syntax-ns#"
   xmlns:svg="http://www.w3.org/2000/svg"
   xmlns="http://www.w3.org/2000/svg"
   xmlns:sodipodi="http://sodipodi.sourceforge.net/DTD/sodipodi-0.dtd"
   xmlns:inkscape="http://www.inkscape.org/namespaces/inkscape"
   enable-background="new 0 0 48 48"
   height="14"
   id="Layer_1"
   version="1.1"
   viewBox="0 0 14 14"
   width="14"
   xml:space="preserve"
   inkscape:version="0.91 r13725"
   sodipodi:docname="1463092809_FAQ_2.svg"><metadata
     id="metadata9"><rdf:RDF><cc:Work
         rdf:about=""><dc:format>image/svg+xml</dc:format><dc:type
           rdf:resource="http://purl.org/dc/dcmitype/StillImage" /><dc:title></dc:title></cc:Work></rdf:RDF></metadata><defs
     id="defs7" /><sodipodi:namedview
     pagecolor="#ffffff"
     bordercolor="#666666"
     borderopacity="1"
     objecttolerance="10"
     gridtolerance="10"
     guidetolerance="10"
     inkscape:pageopacity="0"
     inkscape:pageshadow="2"
     inkscape:window-width="1366"
     inkscape:window-height="711"
     id="namedview5"
     showgrid="false"
     inkscape:zoom="19.666667"
     inkscape:cx="4.9163365"
     inkscape:cy="8.2354281"
     inkscape:window-x="0"
     inkscape:window-y="30"
     inkscape:window-maximized="1"
     inkscape:current-layer="Layer_1" /><path
     d="m 7.0247966,0.22033866 c -3.7630721,0 -6.81355931,3.05048754 -6.81355931,6.81355954 0,3.7630728 3.05048721,6.8135598 6.81355931,6.8135598 3.7630714,0 6.8135594,-3.050487 6.8135594,-6.8135598 0,-3.763072 -3.050488,-6.81355954 -6.8135594,-6.81355954 z M 7.2252289,10.599661 c -0.1280382,0.137974 -0.309733,0.206962 -0.5462204,0.206962 -0.2362034,0 -0.4176142,-0.06729 -0.5439491,-0.202135 -0.1263348,-0.134853 -0.189644,-0.323644 -0.189644,-0.566378 0,-0.5025 0.2444365,-0.753466 0.7335931,-0.753466 0.2396101,0 0.4224408,0.065581 0.5490595,0.1970254 0.1266185,0.1314449 0.189644,0.3168308 0.189644,0.5564406 0,0.236204 -0.064445,0.423293 -0.1924831,0.561551 z M 9.0047035,5.7288176 C 8.9314579,5.9235719 8.8207374,6.1089575 8.6725424,6.2852584 8.5243476,6.4615591 8.2694069,6.6912329 7.9068687,6.9739956 7.5974197,7.2167287 7.3901739,7.4180126 7.2854154,7.5778474 c -0.088576,0.1348516 -0.137123,0.3111525 -0.15075,0.5243601 -8.375e-4,0.00455 -0.00228,0.00596 -0.00312,0.010505 -0.059622,0.3358513 -0.449698,0.3335801 -0.449698,0.3335801 l -0.2049746,0 c 0,0 -0.3392586,-0.053373 -0.326483,-0.3193856 0,-0.3659449 0.066432,-0.6702839 0.1995804,-0.9133009 C 6.4831199,6.9705888 6.7162004,6.7196226 7.0486454,6.4601398 7.4446837,6.1472838 7.6996241,5.9045506 7.8143192,5.7316565 7.9290139,5.5587625 7.9866454,5.3523684 7.9866454,5.1127584 7.9866454,4.8334025 7.8935268,4.6187753 7.7072895,4.4688769 7.5210521,4.3189785 7.253052,4.2443134 6.9038573,4.2443134 c -0.3162628,0 -0.6089619,0.044856 -0.8783815,0.1348516 -0.1470593,0.049114 -0.2915635,0.1047586 -0.4349323,0.1646612 -0.00312,0.00112 -0.00426,5.776e-4 -0.00767,0.00199 -0.3310199,0.1280409 -0.484609,-0.132294 -0.484609,-0.132294 L 4.9682374,4.1412584 C 4.9676598,4.1395546 4.8217459,3.80711 5.1470933,3.6609024 5.7270975,3.3957413 6.3406019,3.2617413 6.9884578,3.2617413 c 0.6518306,0 1.1693771,0.1598349 1.5517882,0.4792204 0.3824109,0.3193856 0.5737585,0.7602797 0.5737585,1.3223983 2.839e-4,0.2489787 -0.036339,0.4709873 -0.109301,0.6654576 z"
     id="path3"
     inkscape:connector-curvature="0"
     style="fill:#ffffff" /></svg>