<?xml version="1.0" encoding="UTF-8" standalone="no"?>
<svg
   xmlns:dc="http://purl.org/dc/elements/1.1/"
   xmlns:cc="http://creativecommons.org/ns#"
   xmlns:rdf="http://www.w3.org/1999/02/22-rdf-syntax-ns#"
   xmlns:svg="http://www.w3.org/2000/svg"
   xmlns="http://www.w3.org/2000/svg"
   xmlns:sodipodi="http://sodipodi.sourceforge.net/DTD/sodipodi-0.dtd"
   xmlns:inkscape="http://www.inkscape.org/namespaces/inkscape"
   enable-background="new 0 0 24 24"
   height="13"
   id="Layer_1"
   version="1.1"
   viewBox="0 0 10.2 13"
   width="10.2"
   xml:space="preserve"
   inkscape:version="0.91 r13725"
   sodipodi:docname="arrow-current.svg"><metadata
     id="metadata13"><rdf:RDF><cc:Work
         rdf:about=""><dc:format>image/svg+xml</dc:format><dc:type
           rdf:resource="http://purl.org/dc/dcmitype/StillImage" /><dc:title></dc:title></cc:Work></rdf:RDF></metadata><defs
     id="defs11" /><sodipodi:namedview
     pagecolor="#ffffff"
     bordercolor="#666666"
     borderopacity="1"
     objecttolerance="10"
     gridtolerance="10"
     guidetolerance="10"
     inkscape:pageopacity="0"
     inkscape:pageshadow="2"
     inkscape:window-width="1366"
     inkscape:window-height="711"
     id="namedview9"
     showgrid="false"
     inkscape:zoom="32"
     inkscape:cx="0.75686089"
     inkscape:cy="6.6863812"
     inkscape:window-x="0"
     inkscape:window-y="30"
     inkscape:window-maximized="1"
     inkscape:current-layer="layer2" /><g
     id="g3"
     transform="matrix(0.93644068,0,0,0.93644068,0,-9.4745758)" /><g
     inkscape:groupmode="layer"
     id="layer1"
     inkscape:label="background test"
     transform="translate(0,-11)"
     sodipodi:insensitive="true"><circle
       style="fill:#00ffff;fill-opacity:1;stroke:none;stroke-opacity:1"
       id="path4142"
       cx="40.059322"
       cy="12.31356"
       r="12.5" /></g><g
     inkscape:groupmode="layer"
     id="layer2"
     inkscape:label="arrow"
     transform="translate(0,-11)"><path
       id="path7613"
       d="m 9.7885599,19.907111 -3.8469984,3.674805 c -0.2124969,0.219828 -0.5019488,0.329743 -0.8206939,0.329743 -0.318761,0 -0.6045313,-0.109915 -0.8206931,-0.329743 L 0.43850525,19.907111 c -0.45796842,-0.435994 -0.45796842,-1.146773 0,-1.582766 0.45798445,-0.435991 1.19807305,-0.435991 1.65604945,0 l 1.8465687,1.765956 0,-7.950474 c 0,-0.619184 0.523918,-1.121125 1.1724211,-1.121125 0.6484874,0 1.1724055,0.501941 1.1724055,1.121125 l 0,7.950474 1.8465676,-1.765956 c 0.4579848,-0.435991 1.1980655,-0.435991 1.6560423,0 0.4579751,0.435993 0.4579751,1.14311 0,1.582766 z"
       inkscape:connector-curvature="0"
       style="fill:#e4fde1;fill-opacity:1" /></g></svg>