<?xml version="1.0" encoding="UTF-8" standalone="no"?>
<svg
   xmlns:dc="http://purl.org/dc/elements/1.1/"
   xmlns:cc="http://creativecommons.org/ns#"
   xmlns:rdf="http://www.w3.org/1999/02/22-rdf-syntax-ns#"
   xmlns:svg="http://www.w3.org/2000/svg"
   xmlns="http://www.w3.org/2000/svg"
   xmlns:sodipodi="http://sodipodi.sourceforge.net/DTD/sodipodi-0.dtd"
   xmlns:inkscape="http://www.inkscape.org/namespaces/inkscape"
   enable-background="new 0 0 24 24"
   height="10.5"
   id="Layer_1"
   version="1.1"
   viewBox="0 0 13.2 10.5"
   width="13.2"
   xml:space="preserve"
   inkscape:version="0.91 r13725"
   sodipodi:docname="checkround.svg"><metadata
     id="metadata13"><rdf:RDF><cc:Work
         rdf:about=""><dc:format>image/svg+xml</dc:format><dc:type
           rdf:resource="http://purl.org/dc/dcmitype/StillImage" /><dc:title></dc:title></cc:Work></rdf:RDF></metadata><defs
     id="defs11" /><sodipodi:namedview
     pagecolor="#ffffff"
     bordercolor="#666666"
     borderopacity="1"
     objecttolerance="10"
     gridtolerance="10"
     guidetolerance="10"
     inkscape:pageopacity="0"
     inkscape:pageshadow="2"
     inkscape:window-width="1366"
     inkscape:window-height="711"
     id="namedview9"
     showgrid="false"
     inkscape:zoom="32"
     inkscape:cx="4.0122622"
     inkscape:cy="5.5500055"
     inkscape:window-x="0"
     inkscape:window-y="30"
     inkscape:window-maximized="1"
     inkscape:current-layer="g5" /><g
     id="g3"
     transform="matrix(0.93644068,0,0,0.93644068,0,-11.974576)" /><g
     inkscape:groupmode="layer"
     id="layer1"
     inkscape:label="background test"
     transform="translate(0,-13.5)"><circle
       style="fill:#00ffff;fill-opacity:1;stroke:none;stroke-opacity:1"
       id="path4142"
       cx="40.059322"
       cy="12.31356"
       r="12.5" /></g><g
     inkscape:groupmode="layer"
     id="layer2"
     inkscape:label="check"
     transform="translate(0,-13.5)"><g
       transform="matrix(0.875,0,0,0.875,-4.5488596,7.8000522)"
       id="g5"
       style="fill:#e4fde1;fill-opacity:1"><path
         d="m 20.021318,8.9102646 -8.897991,9.3533674 c -0.18195,0.192348 -0.477619,0.192348 -0.658536,0 L 9.1497867,16.867201 C 8.9688702,16.67594 8.6721672,16.362965 8.4922844,16.169529 l -3.0600735,-3.38186 c -0.089942,-0.09455 -0.1374966,-0.228212 -0.1374966,-0.355357 0,-0.124972 0.047555,-0.246685 0.1374966,-0.341229 l 1.3408497,-1.270372 c 0.090975,-0.09781 0.2119309,-0.145619 0.3318527,-0.145619 0.1178541,0.0011 0.2357083,0.04999 0.3256497,0.145619 l 3.035262,3.254717 c 0.180917,0.193434 0.476586,0.193434 0.658536,0 l 6.925484,-7.2603524 c 0.18195,-0.1923487 0.476586,-0.1923487 0.657503,0 l 1.315004,1.3964304 c 0.180916,0.191262 0.180916,0.5064097 -0.001,0.6987586 z"
         id="path7"
         inkscape:connector-curvature="0"
         sodipodi:nodetypes="ccccccscccccccccc"
         style="fill:#e4fde1;fill-opacity:1" /></g></g></svg>