<?xml version="1.0" encoding="UTF-8" standalone="no"?>
<svg
   xmlns:dc="http://purl.org/dc/elements/1.1/"
   xmlns:cc="http://creativecommons.org/ns#"
   xmlns:rdf="http://www.w3.org/1999/02/22-rdf-syntax-ns#"
   xmlns:svg="http://www.w3.org/2000/svg"
   xmlns="http://www.w3.org/2000/svg"
   xmlns:sodipodi="http://sodipodi.sourceforge.net/DTD/sodipodi-0.dtd"
   xmlns:inkscape="http://www.inkscape.org/namespaces/inkscape"
   width="24"
   height="15"
   viewBox="0 0 24 15"
   id="svg2"
   version="1.1"
   inkscape:version="0.91 r13725"
   sodipodi:docname="iconmonstr-eye-6.svg">
  <metadata
     id="metadata10">
    <rdf:RDF>
      <cc:Work
         rdf:about="">
        <dc:format>image/svg+xml</dc:format>
        <dc:type
           rdf:resource="http://purl.org/dc/dcmitype/StillImage" />
        <dc:title></dc:title>
      </cc:Work>
    </rdf:RDF>
  </metadata>
  <defs
     id="defs8" />
  <sodipodi:namedview
     pagecolor="#ffffff"
     bordercolor="#666666"
     borderopacity="1"
     objecttolerance="10"
     gridtolerance="10"
     guidetolerance="10"
     inkscape:pageopacity="0"
     inkscape:pageshadow="2"
     inkscape:window-width="1366"
     inkscape:window-height="711"
     id="namedview6"
     showgrid="false"
     inkscape:zoom="9.8333333"
     inkscape:cx="11.694915"
     inkscape:cy="12"
     inkscape:window-x="0"
     inkscape:window-y="30"
     inkscape:window-maximized="1"
     inkscape:current-layer="svg2" />
  <path
     d="m 12.015,2.6779661 c 4.751,0 8.063,3.012 9.504,4.636 -1.401,1.837 -4.713,5.3639999 -9.504,5.3639999 -4.42,0 -7.93,-3.5359999 -9.478,-5.4069999 1.493,-1.647 4.817,-4.593 9.478,-4.593 z m 0,-2.00000002 C 4.446,0.67796608 0,7.2289661 0,7.2289661 c 0,0 4.835,7.4489999 12.015,7.4489999 7.733,0 11.985,-7.4489999 11.985,-7.4489999 0,0 -4.291,-6.55100002 -11.985,-6.55100002 z M 12,3.6779661 c -2.21,0 -4,1.791 -4,4 0,2.209 1.79,3.9999999 4,3.9999999 2.209,0 4,-1.7909999 4,-3.9999999 0,-2.209 -1.791,-4 -4,-4 z m -0.004,3.999 c -0.564,0.564 -1.479,0.564 -2.044,0 -0.565,-0.564 -0.565,-1.48 0,-2.044 0.564,-0.564 1.479,-0.564 2.044,0 0.565,0.564 0.565,1.479 0,2.044 z"
     id="path4"
     inkscape:connector-curvature="0"
     style="fill:#ffffff" />
</svg>
