<?xml version="1.0" encoding="UTF-8" standalone="no"?>
<svg
   xmlns:dc="http://purl.org/dc/elements/1.1/"
   xmlns:cc="http://creativecommons.org/ns#"
   xmlns:rdf="http://www.w3.org/1999/02/22-rdf-syntax-ns#"
   xmlns:svg="http://www.w3.org/2000/svg"
   xmlns="http://www.w3.org/2000/svg"
   xmlns:sodipodi="http://sodipodi.sourceforge.net/DTD/sodipodi-0.dtd"
   xmlns:inkscape="http://www.inkscape.org/namespaces/inkscape"
   enable-background="new 0 0 512 512"
   height="85"
   id="Layer_1"
   version="1.1"
   viewBox="0 0 55 85"
   width="55"
   xml:space="preserve"
   inkscape:version="0.91 r13725"
   sodipodi:docname="storm.svg"><metadata
     id="metadata9"><rdf:RDF><cc:Work
         rdf:about=""><dc:format>image/svg+xml</dc:format><dc:type
           rdf:resource="http://purl.org/dc/dcmitype/StillImage" /><dc:title></dc:title></cc:Work></rdf:RDF></metadata><defs
     id="defs7" /><sodipodi:namedview
     pagecolor="#ffffff"
     bordercolor="#666666"
     borderopacity="1"
     objecttolerance="10"
     gridtolerance="10"
     guidetolerance="10"
     inkscape:pageopacity="0"
     inkscape:pageshadow="2"
     inkscape:window-width="1366"
     inkscape:window-height="711"
     id="namedview5"
     showgrid="false"
     inkscape:zoom="2.6074563"
     inkscape:cx="95.930325"
     inkscape:cy="86.7166"
     inkscape:window-x="0"
     inkscape:window-y="30"
     inkscape:window-maximized="1"
     inkscape:current-layer="Layer_1" /><path
     d="m 52.311282,30.123962 c -0.22897,-0.64431 -0.79688,-1.10967 -1.47269,-1.20645 l -20.67254,-2.97134 9.48358,-21.1677704 c 0.25327,-0.56975 0.20303,-1.23075 -0.13776,-1.75562 -0.33893,-0.52323 -0.92167,-0.83972 -1.54517,-0.83972 l -28.8697798,0 c -0.9923,0 -1.80587,0.78556 -1.84108,1.77602 l -1.32938,37.6180304 c -0.0335,0.93999 0.6478,1.75377 1.57874,1.88761 l 14.3723998,2.06841 -19.2296998,34.71382 c -0.45054,0.81727 -0.22156,1.83943 0.53434,2.38676 0.32576,0.23473 0.70176,0.34634 1.07775,0.34634 0.49894,0 0.99416,-0.20282 1.35533,-0.59591 L 51.933232,31.987692 c 0.46166,-0.50285 0.60683,-1.21964 0.37805,-1.86373 z"
     id="path3"
     inkscape:connector-curvature="0"
     style="fill:#010101" /></svg>